<?xml version="1.0" encoding="UTF-8"?>
<svg version="1.1" xmlns="http://www.w3.org/2000/svg" width="224" height="225">
<path d="M0 0 C73.92 0 147.84 0 224 0 C224 74.25 224 148.5 224 225 C150.08 225 76.16 225 0 225 C0 150.75 0 76.5 0 0 Z " fill="#37C837" transform="translate(0,0)"/>
<path d="M0 0 C1.26832616 4.8551021 2.53157982 9.71148604 3.7902832 14.5690918 C4.21860046 16.21918766 4.64826789 17.86893371 5.0793457 19.51831055 C5.70104135 21.89800338 6.31776628 24.27893899 6.93359375 26.66015625 C7.12529648 27.38960953 7.31699921 28.11906281 7.51451111 28.87062073 C8.63757002 33.23660685 9.44293477 37.52550831 10 42 C7.36 41.67 4.72 41.34 2 41 C1.05347632 43.47552348 0.73127033 45.27135586 1.66162109 47.79394531 C2.76718868 49.95143819 3.95441682 52.03766973 5.1875 54.125 C5.64092773 54.91559814 6.09435547 55.70619629 6.56152344 56.52075195 C10.76508314 63.77396703 15.25105943 70.84667844 19.76953125 77.90625 C24.01893853 84.56598546 28.09973685 91.32797923 32.19238281 98.0847168 C33.28562517 99.88913906 34.38113349 101.692191 35.47924805 103.49365234 C36.47088894 105.12797333 37.45207138 106.76869998 38.42114258 108.41650391 C38.85450928 109.14144043 39.28787598 109.86637695 39.734375 110.61328125 C40.1065918 111.24661377 40.47880859 111.87994629 40.86230469 112.5324707 C42.01321734 114.28950462 42.01321734 114.28950462 44.8125 115 C45.534375 115 46.25625 115 47 115 C47.99 112.69 48.98 110.38 50 108 C53.73922129 109.5813062 56.29649737 111.93230398 59.25 114.6875 C60.23123071 115.59563603 61.21300451 116.5031856 62.1953125 117.41015625 C63.12085938 118.26480469 64.04640625 119.11945313 65 120 C66.99174022 121.76686632 68.99844079 123.51498276 71.0078125 125.26171875 C74.69632451 128.48012629 78.34549531 131.74309189 82 135 C79.92018773 137.2965927 78.22145263 138.52075885 75.3125 139.5703125 C74.26449219 139.95509766 74.26449219 139.95509766 73.1953125 140.34765625 C72.10863281 140.73244141 72.10863281 140.73244141 71 141.125 C70.27554688 141.38925781 69.55109375 141.65351563 68.8046875 141.92578125 C60.29719969 145.01798623 54.43355535 146.17570519 45.9375 142.5234375 C15.76499402 126.87546233 -5.94369598 99.88079896 -17 68 C-17.38800781 66.90300781 -17.77601562 65.80601563 -18.17578125 64.67578125 C-22.29432243 52.26025166 -27.27069861 32.05075201 -21.375 19.375 C-20.24609375 17.61328125 -20.24609375 17.61328125 -19 16 C-18.39865234 15.15501953 -18.39865234 15.15501953 -17.78515625 14.29296875 C-14.10156248 9.56302081 -6.13921146 0 0 0 Z " fill="#FCFEFC" transform="translate(79,41)"/>
<path d="M0 0 C0.33 0 0.66 0 1 0 C1 34.32 1 68.64 1 104 C-32.66 104 -66.32 104 -101 104 C-101 103.67 -101 103.34 -101 103 C-99.98164062 102.85304688 -98.96328125 102.70609375 -97.9140625 102.5546875 C-76.23038054 99.21195928 -55.55803453 91.81357839 -39 77 C-38.16082031 76.29101562 -37.32164062 75.58203125 -36.45703125 74.8515625 C-14.35787662 55.79480283 -3.03524193 28.51529918 0 0 Z " fill="#FDFEFD" transform="translate(223,121)"/>
<path d="M0 0 C33.66 0 67.32 0 102 0 C102 34.32 102 68.64 102 104 C101.67 104 101.34 104 101 104 C100.84144531 102.73027344 100.68289062 101.46054688 100.51953125 100.15234375 C97.57565647 77.86984437 90.33544179 56.944904 75 40 C74.33871094 39.19820312 73.67742187 38.39640625 72.99609375 37.5703125 C54.84601798 16.1111069 27.73260225 3.62396563 0 1 C0 0.67 0 0.34 0 0 Z " fill="#FDFEFD" transform="translate(122,0)"/>
<path d="M0 0 C33 0 66 0 100 0 C100 0.33 100 0.66 100 1 C99.38705078 1.11480713 98.77410156 1.22961426 98.14257812 1.34790039 C76.26586018 5.53466569 57.29284295 12.4311624 40 27 C39.19949219 27.65484375 38.39898437 28.3096875 37.57421875 28.984375 C15.33641595 47.93665484 4.03763309 75.51772269 1 104 C0.67 104 0.34 104 0 104 C0 69.68 0 35.36 0 0 Z " fill="#FDFEFD" transform="translate(0,0)"/>
<path d="M0 0 C0.33 0 0.66 0 1 0 C1.13535156 1.22332031 1.27070313 2.44664063 1.41015625 3.70703125 C4.14619149 25.98107856 12.03315529 47.00132743 27 64 C27.66386719 64.80695313 28.32773437 65.61390625 29.01171875 66.4453125 C47.19827261 87.89267176 72.77208379 98.59916729 100 103 C100 103.33 100 103.66 100 104 C67 104 34 104 0 104 C0 69.68 0 35.36 0 0 Z " fill="#FDFEFD" transform="translate(0,121)"/>
<path d="M0 0 C1.94677296 1.61990023 3.7504887 3.24190708 5.5625 5 C10.48057793 9.64994414 15.53668854 13.98809966 20.8203125 18.22265625 C23 20 23 20 25 22 C24.61233695 25.58588324 23.41433748 28.69987921 22 32 C17.96194134 30.63733356 15.45631882 28.8590849 12.375 25.9375 C8.79777194 22.62111148 5.16632168 19.44491742 1.375 16.375 C-2.00298263 13.63129007 -5.37455909 10.88463485 -8.6875 8.0625 C-9.33074219 7.51722656 -9.97398437 6.97195312 -10.63671875 6.41015625 C-12 5 -12 5 -12 3 C-10.75823305 2.29773859 -9.50614401 1.61370891 -8.25 0.9375 C-7.20585937 0.36322266 -7.20585937 0.36322266 -6.140625 -0.22265625 C-3.46270805 -1.19511149 -2.60021526 -1.16595018 0 0 Z " fill="#F9FDF9" transform="translate(143,141)"/>
<path d="M0 0 C8.75 -0.125 8.75 -0.125 11 1 C11.7357346 3.12144905 12.36490868 5.2801215 12.9453125 7.44921875 C13.12005096 8.09945511 13.29478943 8.74969147 13.474823 9.41963196 C13.84345873 10.79978026 14.20802007 12.1810222 14.56884766 13.56323242 C15.11899436 15.66456097 15.68540848 17.76099374 16.25390625 19.85742188 C16.61036936 21.20025727 16.96586852 22.54334899 17.3203125 23.88671875 C17.64273926 25.10576904 17.96516602 26.32481934 18.29736328 27.58081055 C18.97220165 30.86472691 19.26759513 33.66176595 19 37 C17.25 38.8984375 17.25 38.8984375 15 40.375 C14.2575 40.87773438 13.515 41.38046875 12.75 41.8984375 C12.1725 42.26195312 11.595 42.62546875 11 43 C8.65230532 36.28603203 6.72219716 29.50817982 4.9375 22.625 C4.68162109 21.66078125 4.42574219 20.6965625 4.16210938 19.703125 C2.46131136 13.17975576 1.11242513 6.64854817 0 0 Z " fill="#F9FDF9" transform="translate(82,40)"/>
<path d="M0 0 C0.99 0 1.98 0 3 0 C3.13051758 0.56283691 3.26103516 1.12567383 3.39550781 1.70556641 C4.01006718 4.34623436 4.62924536 6.9857814 5.25 9.625 C5.47381348 10.57818115 5.69762695 11.5313623 5.92822266 12.51342773 C7.51640658 19.19089131 9.32048021 25.74197012 11.3984375 32.28515625 C12.00307378 35.01387195 11.95582728 36.41181834 11 39 C7.46796913 36.64531275 7.43702153 35.95123493 6.5 31.9765625 C6.2525 30.95433594 6.005 29.93210937 5.75 28.87890625 C5.5025 27.80511719 5.255 26.73132813 5 25.625 C4.62875 24.07232422 4.62875 24.07232422 4.25 22.48828125 C3.74946992 20.39491845 3.25468673 18.30017331 2.765625 16.20410156 C1.73171989 11.87726141 0.59707943 7.57775008 -0.546875 3.27880859 C-0.77117187 2.15079834 -0.77117187 2.15079834 -1 1 C-0.67 0.67 -0.34 0.34 0 0 Z " fill="#3CC93C" transform="translate(80,43)"/>
<path d="M0 0 C0.66 0.33 1.32 0.66 2 1 C-3.28 6.28 -8.56 11.56 -14 17 C-14.66 16.67 -15.32 16.34 -16 16 C-14.27538679 14.07906479 -12.54557391 12.163278 -10.8125 10.25 C-10.32974609 9.71117187 -9.84699219 9.17234375 -9.34960938 8.6171875 C-6.43837795 5.41287909 -3.47293499 2.6158121 0 0 Z " fill="#3FCA3F" transform="translate(41,25)"/>
<path d="M0 0 C0.99 0 1.98 0 3 0 C3.38897161 1.62171239 3.76078298 3.24754925 4.125 4.875 C4.33382812 5.77992187 4.54265625 6.68484375 4.7578125 7.6171875 C4.83773437 8.40351562 4.91765625 9.18984375 5 10 C4.34 10.66 3.68 11.32 3 12 C2.34 11.67 1.68 11.34 1 11 C0.33203125 8.75 0.33203125 8.75 -0.1875 6 C-0.36667969 5.0925 -0.54585938 4.185 -0.73046875 3.25 C-0.81941406 2.5075 -0.90835938 1.765 -1 1 C-0.67 0.67 -0.34 0.34 0 0 Z " fill="#48CC48" transform="translate(80,43)"/>
</svg>
